<svg width="31" height="30" viewBox="0 0 31 30" fill="none" xmlns="http://www.w3.org/2000/svg">
<g id="ChevronRight">
<path id="Vector" fill-rule="evenodd" clip-rule="evenodd" d="M11.4397 22.0604C11.1585 21.7791 11.0005 21.3976 11.0005 20.9999C11.0005 20.6021 11.1585 20.2207 11.4397 19.9394L16.3792 14.9999L11.4397 10.0604C11.1664 9.77748 11.0152 9.39857 11.0187 9.00528C11.0221 8.61198 11.1798 8.23576 11.4579 7.95765C11.7361 7.67954 12.1123 7.52178 12.5056 7.51837C12.8989 7.51495 13.2778 7.66614 13.5607 7.93938L19.5607 13.9394C19.8419 14.2207 19.9998 14.6021 19.9998 14.9999C19.9998 15.3976 19.8419 15.7791 19.5607 16.0604L13.5607 22.0604C13.2794 22.3416 12.8979 22.4996 12.5002 22.4996C12.1024 22.4996 11.721 22.3416 11.4397 22.0604Z" fill="white"/>
</g>
</svg>
