<svg width="24" height="24" viewBox="0 0 24 24" fill="none" xmlns="http://www.w3.org/2000/svg">
<path d="M23.4783 12.0724C23.4783 5.58725 18.2199 0.333252 11.7391 0.333252C5.25399 0.333252 0 5.58725 0 12.0724C0 17.9302 4.29139 22.7873 9.90489 23.667V15.4665H6.92389V12.0731H9.90489V9.48537C9.90489 6.54399 11.6548 4.91958 14.3371 4.91958C15.6218 4.91958 16.9667 5.1485 16.9667 5.1485V8.03706H15.4839C14.0283 8.03706 13.5734 8.94317 13.5734 9.8713V12.0724H16.8288L16.3057 15.4657H13.5734V23.6662C19.1825 22.7865 23.4783 17.9295 23.4783 12.0716V12.0724Z" fill="white"/>
</svg>
