<svg width="26" height="26" viewBox="0 0 26 26" fill="none" xmlns="http://www.w3.org/2000/svg">
<path d="M13 1C6.373 1 1 6.373 1 13C1 18.623 4.872 23.328 10.092 24.63C10.036 24.468 10 24.28 10 24.047V21.996C9.513 21.996 8.697 21.996 8.492 21.996C7.671 21.996 6.941 21.643 6.587 20.987C6.194 20.258 6.126 19.143 5.152 18.461C4.863 18.234 5.083 17.975 5.416 18.01C6.031 18.184 6.541 18.606 7.021 19.232C7.499 19.859 7.724 20.001 8.617 20.001C9.05 20.001 9.698 19.976 10.308 19.88C10.636 19.047 11.203 18.28 11.896 17.918C7.9 17.507 5.993 15.519 5.993 12.82C5.993 11.658 6.488 10.534 7.329 9.587C7.053 8.647 6.706 6.73 7.435 6C9.233 6 10.32 7.166 10.581 7.481C11.477 7.174 12.461 7 13.495 7C14.531 7 15.519 7.174 16.417 7.483C16.675 7.17 17.763 6 19.565 6C20.297 6.731 19.946 8.656 19.667 9.594C20.503 10.539 20.995 11.66 20.995 12.82C20.995 15.517 19.091 17.504 15.101 17.917C16.199 18.49 17 20.1 17 21.313V24.047C17 24.151 16.977 24.226 16.965 24.315C21.641 22.676 25 18.236 25 13C25 6.373 19.627 1 13 1Z" fill="white"/>
</svg>
