<svg width="18" height="18" viewBox="0 0 18 18" fill="none" xmlns="http://www.w3.org/2000/svg">
<path fill-rule="evenodd" clip-rule="evenodd" d="M9.00078 16.2C10.9103 16.2 12.7417 15.4414 14.092 14.0912C15.4422 12.7409 16.2008 10.9095 16.2008 8.99999C16.2008 7.09043 15.4422 5.25908 14.092 3.90882C12.7417 2.55856 10.9103 1.79999 9.00078 1.79999C7.09122 1.79999 5.25987 2.55856 3.90961 3.90882C2.55935 5.25908 1.80078 7.09043 1.80078 8.99999C1.80078 10.9095 2.55935 12.7409 3.90961 14.0912C5.25987 15.4414 7.09122 16.2 9.00078 16.2ZM12.3371 8.36369L9.63708 5.66369C9.46734 5.49975 9.24 5.40903 9.00402 5.41108C8.76804 5.41313 8.54231 5.50778 8.37544 5.67465C8.20858 5.84152 8.11393 6.06725 8.11187 6.30323C8.10982 6.5392 8.20054 6.76655 8.36448 6.93629L9.52818 8.09999H6.30078C6.06209 8.09999 5.83317 8.19481 5.66439 8.36359C5.4956 8.53237 5.40078 8.76129 5.40078 8.99999C5.40078 9.23868 5.4956 9.4676 5.66439 9.63638C5.83317 9.80517 6.06209 9.89999 6.30078 9.89999H9.52818L8.36448 11.0637C8.27852 11.1467 8.20996 11.246 8.16279 11.3558C8.11562 11.4656 8.09079 11.5837 8.08976 11.7032C8.08872 11.8227 8.11149 11.9412 8.15674 12.0518C8.20199 12.1625 8.26882 12.2629 8.35333 12.3474C8.43783 12.4319 8.53832 12.4988 8.64892 12.544C8.75953 12.5893 8.87804 12.6121 8.99754 12.611C9.11704 12.61 9.23514 12.5851 9.34494 12.538C9.45475 12.4908 9.55406 12.4222 9.63708 12.3363L12.3371 9.63629C12.5058 9.46751 12.6006 9.23864 12.6006 8.99999C12.6006 8.76134 12.5058 8.53246 12.3371 8.36369Z" fill="#FFE113"/>
</svg>
