<svg width="50" height="50" viewBox="0 0 50 50" fill="none" xmlns="http://www.w3.org/2000/svg">
<path fill-rule="evenodd" clip-rule="evenodd" d="M10.732 10.7325C11.2008 10.2638 11.8366 10.0005 12.4995 10.0005C13.1624 10.0005 13.7981 10.2638 14.267 10.7325L24.9995 21.465L35.732 10.7325C35.9626 10.4937 36.2384 10.3032 36.5435 10.1722C36.8485 10.0412 37.1765 9.97222 37.5085 9.96933C37.8404 9.96645 38.1696 10.0297 38.4769 10.1554C38.7841 10.2811 39.0632 10.4667 39.298 10.7015C39.5327 10.9362 39.7183 11.2153 39.844 11.5226C39.9697 11.8298 40.033 12.159 40.0301 12.491C40.0272 12.8229 39.9582 13.151 39.8272 13.456C39.6962 13.761 39.5057 14.0368 39.267 14.2675L28.5345 25L39.267 35.7325C39.7224 36.204 39.9744 36.8355 39.9687 37.491C39.963 38.1465 39.7 38.7735 39.2365 39.237C38.773 39.7005 38.146 39.9634 37.4905 39.9691C36.835 39.9748 36.2035 39.7229 35.732 39.2675L24.9995 28.535L14.267 39.2675C13.7955 39.7229 13.164 39.9748 12.5085 39.9691C11.853 39.9634 11.2259 39.7005 10.7624 39.237C10.2989 38.7735 10.036 38.1465 10.0303 37.491C10.0246 36.8355 10.2766 36.204 10.732 35.7325L21.4645 25L10.732 14.2675C10.2633 13.7986 10 13.1629 10 12.5C10 11.837 10.2633 11.2013 10.732 10.7325Z" fill="black"/>
</svg>
