<svg width="12" height="12" viewBox="0 0 12 12" fill="none" xmlns="http://www.w3.org/2000/svg">
<g clip-path="url(#clip0_1436_23826)">
<path d="M6.79967 0.400024C6.5875 0.400024 6.38402 0.48431 6.23399 0.634339C6.08396 0.784368 5.99967 0.987851 5.99967 1.20002C5.99967 1.4122 6.08396 1.61568 6.23399 1.76571C6.38402 1.91574 6.5875 2.00002 6.79967 2.00002H8.86847L3.83407 7.03442C3.75767 7.10822 3.69672 7.1965 3.65479 7.2941C3.61287 7.3917 3.5908 7.49668 3.58987 7.6029C3.58895 7.70913 3.60919 7.81447 3.64942 7.91279C3.68964 8.0111 3.74904 8.10043 3.82416 8.17554C3.89927 8.25065 3.98859 8.31006 4.08691 8.35028C4.18523 8.39051 4.29057 8.41075 4.3968 8.40983C4.50302 8.4089 4.60799 8.38683 4.7056 8.34491C4.8032 8.30298 4.89148 8.24203 4.96527 8.16562L9.99967 3.13122V5.20002C9.99967 5.4122 10.084 5.61568 10.234 5.76571C10.384 5.91574 10.5875 6.00002 10.7997 6.00002C11.0118 6.00002 11.2153 5.91574 11.3654 5.76571C11.5154 5.61568 11.5997 5.4122 11.5997 5.20002V1.20002C11.5997 0.987851 11.5154 0.784368 11.3654 0.634339C11.2153 0.48431 11.0118 0.400024 10.7997 0.400024H6.79967Z" fill="#FFE113"/>
<path d="M2.00039 2C1.57604 2 1.16908 2.16857 0.86902 2.46863C0.568961 2.76869 0.400391 3.17565 0.400391 3.6V10C0.400391 10.4243 0.568961 10.8313 0.86902 11.1314C1.16908 11.4314 1.57604 11.6 2.00039 11.6H8.40039C8.82474 11.6 9.2317 11.4314 9.53176 11.1314C9.83182 10.8313 10.0004 10.4243 10.0004 10V7.6C10.0004 7.38783 9.9161 7.18434 9.76608 7.03431C9.61605 6.88429 9.41256 6.8 9.20039 6.8C8.98822 6.8 8.78473 6.88429 8.6347 7.03431C8.48468 7.18434 8.40039 7.38783 8.40039 7.6V10H2.00039V3.6H4.40039C4.61256 3.6 4.81605 3.51571 4.96608 3.36569C5.1161 3.21566 5.20039 3.01217 5.20039 2.8C5.20039 2.58783 5.1161 2.38434 4.96608 2.23431C4.81605 2.08429 4.61256 2 4.40039 2H2.00039Z" fill="#FFE113"/>
</g>
<defs>
<clipPath id="clip0_1436_23826">
<rect width="12" height="12" fill="white"/>
</clipPath>
</defs>
</svg>
