<svg width="24" height="24" viewBox="0 0 24 24" fill="none" xmlns="http://www.w3.org/2000/svg">
<path d="M23.4783 12.0723C23.4783 5.58713 18.2199 0.33313 11.7391 0.33313C5.25399 0.33313 0 5.58713 0 12.0723C0 17.9301 4.29139 22.7872 9.90489 23.6669V15.4663H6.92389V12.073H9.90489V9.48525C9.90489 6.54386 11.6548 4.91946 14.3371 4.91946C15.6218 4.91946 16.9667 5.14838 16.9667 5.14838V8.03694H15.4839C14.0283 8.03694 13.5734 8.94305 13.5734 9.87117V12.0723H16.8288L16.3057 15.4656H13.5734V23.6661C19.1825 22.7864 23.4783 17.9294 23.4783 12.0715V12.0723Z" fill="#FFE113"/>
</svg>
