<svg width="24" height="24" viewBox="0 0 24 24" fill="none" xmlns="http://www.w3.org/2000/svg">
<path fill-rule="evenodd" clip-rule="evenodd" d="M7.05266 0.072C8.33267 0.0133309 8.74067 0 12 0C15.26 0 15.6673 0.0139963 16.9466 0.072C18.2246 0.130004 19.0973 0.333338 19.8607 0.63C20.6613 0.931429 21.3865 1.40372 21.986 2.014C22.5963 2.61338 23.0687 3.33868 23.37 4.13933C23.6666 4.90267 23.8693 5.77534 23.928 7.05266C23.9867 8.33267 24 8.74067 24 12C24 15.2593 23.986 15.6673 23.928 16.9474C23.87 18.2246 23.6666 19.0973 23.37 19.8607C23.0633 20.6494 22.6526 21.3193 21.986 21.986C21.3866 22.5963 20.6613 23.0687 19.8607 23.37C19.0973 23.6666 18.2246 23.8693 16.9474 23.928C15.6673 23.9867 15.2593 24 12 24C8.74067 24 8.33267 23.986 7.05266 23.928C5.77534 23.87 4.90267 23.6666 4.13933 23.37C3.35066 23.0633 2.68067 22.6526 2.014 21.986C1.40361 21.3866 0.931287 20.6613 0.63 19.8607C0.333338 19.0973 0.130669 18.2246 0.072 16.9474C0.0133309 15.6673 0 15.26 0 12C0 8.74 0.0139963 8.33267 0.072 7.05334C0.130004 5.77534 0.333338 4.90267 0.63 4.13933C0.931429 3.33874 1.40372 2.61347 2.014 2.014C2.61337 1.40361 3.33867 0.931287 4.13933 0.63C4.90267 0.333338 5.77534 0.130669 7.05266 0.072ZM16.8493 2.232C15.584 2.17466 15.204 2.162 12 2.162C8.796 2.162 8.416 2.17466 7.15067 2.232C5.98067 2.28533 5.34533 2.48066 4.92266 2.64533C4.36267 2.86267 3.96266 3.12266 3.54266 3.54266C3.12334 3.96266 2.86267 4.36267 2.64533 4.92266C2.48066 5.34533 2.28533 5.98067 2.232 7.15067C2.17466 8.416 2.162 8.796 2.162 12C2.162 15.204 2.17466 15.584 2.232 16.8493C2.28533 18.0193 2.48066 18.6547 2.64533 19.0774C2.83757 19.5986 3.14421 20.0701 3.54266 20.4574C3.92983 20.8558 4.40139 21.1624 4.92266 21.3547C5.34533 21.5194 5.98067 21.7147 7.15067 21.768C8.416 21.8254 8.79533 21.838 12 21.838C15.2047 21.838 15.584 21.8254 16.8493 21.768C18.0193 21.7147 18.6547 21.5194 19.0774 21.3547C19.6373 21.1373 20.0374 20.8774 20.4574 20.4574C20.8558 20.0702 21.1624 19.5986 21.3547 19.0774C21.5194 18.6547 21.7147 18.0193 21.768 16.8493C21.8254 15.584 21.838 15.204 21.838 12C21.838 8.796 21.8254 8.416 21.768 7.15067C21.7147 5.98067 21.5194 5.34533 21.3547 4.92266C21.1373 4.36267 20.8774 3.96266 20.4574 3.54266C20.0374 3.12334 19.6373 2.86267 19.0774 2.64533C18.6547 2.48066 18.0193 2.28533 16.8493 2.232ZM10.4678 15.6992C10.9536 15.9004 11.4742 16.004 12 16.004C13.062 16.004 14.0804 15.5821 14.8312 14.8312C15.5822 14.0804 16.0041 13.0619 16.0041 12C16.0041 10.9381 15.5822 9.91964 14.8312 9.16874C14.0804 8.41785 13.062 7.99599 12 7.99599C11.4742 7.99599 10.9536 8.09956 10.4678 8.30078C9.98193 8.502 9.54058 8.79693 9.16877 9.16874C8.79697 9.54055 8.50203 9.98193 8.30082 10.4677C8.0996 10.9535 7.99604 11.4742 7.99604 12C7.99604 12.5258 8.0996 13.0465 8.30082 13.5323C8.50203 14.0181 8.79697 14.4595 9.16877 14.8312C9.54058 15.203 9.98193 15.498 10.4678 15.6992ZM7.6386 7.63856C8.79532 6.48183 10.3642 5.83199 12 5.83199C13.6359 5.83199 15.2048 6.48183 16.3615 7.63856C17.5181 8.79528 18.168 10.3642 18.168 12C18.168 13.6358 17.5181 15.2047 16.3615 16.3615C15.2048 17.5181 13.6359 18.168 12 18.168C10.3642 18.168 8.79532 17.5181 7.6386 16.3615C6.48188 15.2047 5.83203 13.6358 5.83203 12C5.83203 10.3642 6.48188 8.79528 7.6386 7.63856ZM19.5357 6.75096C19.8091 6.47752 19.9627 6.10668 19.9627 5.72C19.9627 5.3333 19.8091 4.96246 19.5357 4.68903C19.2622 4.41561 18.8914 4.262 18.5047 4.262C18.118 4.262 17.7471 4.41561 17.4737 4.68903C17.2003 4.96246 17.0467 5.3333 17.0467 5.72C17.0467 6.10668 17.2003 6.47752 17.4737 6.75096C17.7471 7.02439 18.118 7.178 18.5047 7.178C18.8914 7.178 19.2622 7.02439 19.5357 6.75096Z" fill="#FFE113"/>
</svg>
