<svg width="24" height="24" viewBox="0 0 24 24" fill="none" xmlns="http://www.w3.org/2000/svg">
<path d="M21 1H3C1.895 1 1 1.895 1 3V21C1 22.105 1.895 23 3 23H21C22.105 23 23 22.105 23 21V3C23 1.895 22.105 1 21 1ZM7.954 19H5.004V9.508H7.954V19ZM6.449 8.151C5.498 8.151 4.729 7.38 4.729 6.431C4.729 5.482 5.499 4.712 6.449 4.712C7.397 4.712 8.168 5.483 8.168 6.431C8.168 7.38 7.397 8.151 6.449 8.151ZM19.004 19H16.056V14.384C16.056 13.283 16.036 11.867 14.523 11.867C12.988 11.867 12.752 13.066 12.752 14.304V19H9.804V9.508H12.634V10.805H12.674C13.068 10.059 14.03 9.272 15.465 9.272C18.452 9.272 19.004 11.238 19.004 13.794V19Z" fill="#FFE113"/>
</svg>
