<svg width="50" height="50" viewBox="0 0 50 50" fill="none" xmlns="http://www.w3.org/2000/svg">
<path fill-rule="evenodd" clip-rule="evenodd" d="M7.5 12.5C7.5 11.837 7.76339 11.2011 8.23223 10.7322C8.70107 10.2634 9.33696 10 10 10H40C40.663 10 41.2989 10.2634 41.7678 10.7322C42.2366 11.2011 42.5 11.837 42.5 12.5C42.5 13.163 42.2366 13.7989 41.7678 14.2678C41.2989 14.7366 40.663 15 40 15H10C9.33696 15 8.70107 14.7366 8.23223 14.2678C7.76339 13.7989 7.5 13.163 7.5 12.5ZM7.5 25C7.5 24.337 7.76339 23.7011 8.23223 23.2322C8.70107 22.7634 9.33696 22.5 10 22.5H40C40.663 22.5 41.2989 22.7634 41.7678 23.2322C42.2366 23.7011 42.5 24.337 42.5 25C42.5 25.663 42.2366 26.2989 41.7678 26.7678C41.2989 27.2366 40.663 27.5 40 27.5H10C9.33696 27.5 8.70107 27.2366 8.23223 26.7678C7.76339 26.2989 7.5 25.663 7.5 25ZM7.5 37.5C7.5 36.837 7.76339 36.2011 8.23223 35.7322C8.70107 35.2634 9.33696 35 10 35H40C40.663 35 41.2989 35.2634 41.7678 35.7322C42.2366 36.2011 42.5 36.837 42.5 37.5C42.5 38.163 42.2366 38.7989 41.7678 39.2678C41.2989 39.7366 40.663 40 40 40H10C9.33696 40 8.70107 39.7366 8.23223 39.2678C7.76339 38.7989 7.5 38.163 7.5 37.5Z" fill="#FFE113"/>
</svg>
