<svg width="37" height="30" viewBox="0 0 37 30" fill="none" xmlns="http://www.w3.org/2000/svg">
<rect x="0.5" width="36" height="30" rx="5" fill="black"/>
<path fill-rule="evenodd" clip-rule="evenodd" d="M14.4392 22.0604C14.158 21.7791 14 21.3976 14 20.9999C14 20.6021 14.158 20.2207 14.4392 19.9394L19.3787 14.9999L14.4392 10.0604C14.1659 9.77748 14.0148 9.39857 14.0182 9.00528C14.0216 8.61198 14.1793 8.23576 14.4575 7.95765C14.7356 7.67954 15.1118 7.52178 15.5051 7.51837C15.8984 7.51495 16.2773 7.66614 16.5602 7.93938L22.5602 13.9394C22.8414 14.2207 22.9994 14.6021 22.9994 14.9999C22.9994 15.3976 22.8414 15.7791 22.5602 16.0604L16.5602 22.0604C16.2789 22.3416 15.8974 22.4996 15.4997 22.4996C15.1019 22.4996 14.7205 22.3416 14.4392 22.0604Z" fill="white"/>
</svg>
