<svg width="36" height="30" viewBox="0 0 36 30" fill="none" xmlns="http://www.w3.org/2000/svg">
<rect width="36" height="30" rx="5" fill="#FFE113"/>
<path fill-rule="evenodd" clip-rule="evenodd" d="M13.9392 22.0606C13.658 21.7793 13.5 21.3979 13.5 21.0001C13.5 20.6024 13.658 20.2209 13.9392 19.9396L18.8787 15.0001L13.9392 10.0606C13.6659 9.77772 13.5148 9.39882 13.5182 9.00552C13.5216 8.61223 13.6793 8.23601 13.9575 7.95789C14.2356 7.67978 14.6118 7.52203 15.0051 7.51861C15.3984 7.51519 15.7773 7.66639 16.0602 7.93962L22.0602 13.9396C22.3414 14.2209 22.4994 14.6024 22.4994 15.0001C22.4994 15.3979 22.3414 15.7793 22.0602 16.0606L16.0602 22.0606C15.7789 22.3418 15.3974 22.4998 14.9997 22.4998C14.6019 22.4998 14.2205 22.3418 13.9392 22.0606Z" fill="black"/>
</svg>
