<svg width="37" height="30" viewBox="0 0 37 30" fill="none" xmlns="http://www.w3.org/2000/svg">
<rect x="0.5" width="36" height="30" rx="5" fill="black"/>
<path fill-rule="evenodd" clip-rule="evenodd" d="M22.5602 7.93942C22.8414 8.22072 22.9994 8.60218 22.9994 8.99992C22.9994 9.39767 22.8414 9.77913 22.5602 10.0604L17.6207 14.9999L22.5602 19.9394C22.8334 20.2223 22.9846 20.6012 22.9812 20.9945C22.9778 21.3878 22.82 21.764 22.5419 22.0422C22.2638 22.3203 21.8876 22.478 21.4943 22.4814C21.101 22.4849 20.7221 22.3337 20.4392 22.0604L14.4392 16.0604C14.158 15.7791 14 15.3977 14 14.9999C14 14.6022 14.158 14.2207 14.4392 13.9394L20.4392 7.93942C20.7205 7.65822 21.1019 7.50024 21.4997 7.50024C21.8974 7.50024 22.2789 7.65822 22.5602 7.93942Z" fill="white"/>
</svg>
