<svg width="36" height="30" viewBox="0 0 36 30" fill="none" xmlns="http://www.w3.org/2000/svg">
<rect width="36" height="30" rx="5" fill="#FFE113"/>
<path fill-rule="evenodd" clip-rule="evenodd" d="M22.0602 7.93967C22.3414 8.22096 22.4994 8.60242 22.4994 9.00017C22.4994 9.39791 22.3414 9.77938 22.0602 10.0607L17.1207 15.0002L22.0602 19.9397C22.3334 20.2226 22.4846 20.6015 22.4812 20.9948C22.4778 21.3881 22.32 21.7643 22.0419 22.0424C21.7638 22.3205 21.3876 22.4783 20.9943 22.4817C20.601 22.4851 20.2221 22.3339 19.9392 22.0607L13.9392 16.0607C13.658 15.7794 13.5 15.3979 13.5 15.0002C13.5 14.6024 13.658 14.221 13.9392 13.9397L19.9392 7.93967C20.2205 7.65846 20.6019 7.50049 20.9997 7.50049C21.3974 7.50049 21.7789 7.65846 22.0602 7.93967Z" fill="black"/>
</svg>
