<svg width="18" height="18" viewBox="0 0 18 18" fill="none" xmlns="http://www.w3.org/2000/svg">
<path fill-rule="evenodd" clip-rule="evenodd" d="M9 18C11.3869 18 13.6761 17.0518 15.364 15.364C17.0518 13.6761 18 11.3869 18 9C18 6.61305 17.0518 4.32387 15.364 2.63604C13.6761 0.948212 11.3869 0 9 0C6.61305 0 4.32387 0.948212 2.63604 2.63604C0.948212 4.32387 0 6.61305 0 9C0 11.3869 0.948212 13.6761 2.63604 15.364C4.32387 17.0518 6.61305 18 9 18ZM13.1704 8.20463L9.79537 4.82963C9.5832 4.6247 9.29902 4.5113 9.00405 4.51387C8.70908 4.51643 8.42691 4.63475 8.21833 4.84333C8.00975 5.05191 7.89143 5.33408 7.88887 5.62905C7.8863 5.92402 7.9997 6.2082 8.20463 6.42037L9.65925 7.875H5.625C5.32663 7.875 5.04048 7.99353 4.82951 8.20451C4.61853 8.41548 4.5 8.70163 4.5 9C4.5 9.29837 4.61853 9.58452 4.82951 9.79549C5.04048 10.0065 5.32663 10.125 5.625 10.125H9.65925L8.20463 11.5796C8.09718 11.6834 8.01147 11.8075 7.95251 11.9448C7.89355 12.082 7.86252 12.2297 7.86122 12.379C7.85992 12.5284 7.88838 12.6766 7.94495 12.8148C8.00152 12.9531 8.08505 13.0787 8.19068 13.1843C8.29631 13.2899 8.42192 13.3735 8.56018 13.43C8.69844 13.4866 8.84657 13.5151 8.99595 13.5138C9.14533 13.5125 9.29295 13.4814 9.4302 13.4225C9.56746 13.3635 9.6916 13.2778 9.79537 13.1704L13.1704 9.79537C13.3813 9.58441 13.4998 9.29831 13.4998 9C13.4998 8.70169 13.3813 8.41559 13.1704 8.20463Z" fill="#FFE113"/>
</svg>
