<svg width="21" height="21" viewBox="0 0 21 21" fill="none" xmlns="http://www.w3.org/2000/svg">
<path fill-rule="evenodd" clip-rule="evenodd" d="M21 10.5C21 7.71523 19.8938 5.04451 17.9246 3.07538C15.9555 1.10625 13.2848 0 10.5 0C7.71523 0 5.04451 1.10625 3.07538 3.07538C1.10625 5.04451 0 7.71523 0 10.5C0 13.2848 1.10625 15.9555 3.07538 17.9246C5.04451 19.8938 7.71523 21 10.5 21C13.2848 21 15.9555 19.8938 17.9246 17.9246C19.8938 15.9555 21 13.2848 21 10.5ZM9.57206 5.63456L5.63456 9.57206C5.39548 9.8196 5.26319 10.1511 5.26618 10.4953C5.26917 10.8394 5.4072 11.1686 5.65055 11.4119C5.8939 11.6553 6.22309 11.7933 6.56722 11.7963C6.91136 11.7993 7.2429 11.667 7.49044 11.4279L9.1875 9.73087V14.4375C9.1875 14.7856 9.32578 15.1194 9.57192 15.3656C9.81806 15.6117 10.1519 15.75 10.5 15.75C10.8481 15.75 11.1819 15.6117 11.4281 15.3656C11.6742 15.1194 11.8125 14.7856 11.8125 14.4375V9.73087L13.5096 11.4279C13.6306 11.5533 13.7755 11.6533 13.9356 11.7221C14.0957 11.7909 14.268 11.8271 14.4422 11.8286C14.6165 11.8301 14.7893 11.7969 14.9506 11.7309C15.1119 11.6649 15.2585 11.5674 15.3817 11.4442C15.5049 11.321 15.6024 11.1744 15.6684 11.0131C15.7344 10.8518 15.7676 10.679 15.7661 10.5047C15.7646 10.3305 15.7284 10.1582 15.6596 9.99809C15.5908 9.83796 15.4908 9.69314 15.3654 9.57206L11.4279 5.63456C11.1818 5.38851 10.848 5.25028 10.5 5.25028C10.152 5.25028 9.81819 5.38851 9.57206 5.63456Z" fill="#FFE113"/>
</svg>
