<svg width="31" height="30" viewBox="0 0 31 30" fill="none" xmlns="http://www.w3.org/2000/svg">
<g id="ChevronLeft">
<path id="Vector" fill-rule="evenodd" clip-rule="evenodd" d="M19.5607 7.93942C19.8419 8.22072 19.9998 8.60218 19.9998 8.99992C19.9998 9.39767 19.8419 9.77913 19.5607 10.0604L14.6212 14.9999L19.5607 19.9394C19.8339 20.2223 19.9851 20.6012 19.9817 20.9945C19.9783 21.3878 19.8205 21.764 19.5424 22.0422C19.2643 22.3203 18.8881 22.478 18.4948 22.4814C18.1015 22.4849 17.7226 22.3337 17.4397 22.0604L11.4397 16.0604C11.1585 15.7791 11.0005 15.3977 11.0005 14.9999C11.0005 14.6022 11.1585 14.2207 11.4397 13.9394L17.4397 7.93942C17.721 7.65822 18.1024 7.50024 18.5002 7.50024C18.8979 7.50024 19.2794 7.65822 19.5607 7.93942Z" fill="white"/>
</g>
</svg>
