<svg width="21" height="22" viewBox="0 0 21 22" fill="none" xmlns="http://www.w3.org/2000/svg">
<path id="Vector" fill-rule="evenodd" clip-rule="evenodd" d="M21 11C21 8.21523 19.8938 5.54451 17.9246 3.57538C15.9555 1.60625 13.2848 0.5 10.5 0.5C7.71523 0.5 5.04451 1.60625 3.07538 3.57538C1.10625 5.54451 0 8.21523 0 11C0 13.7848 1.10625 16.4555 3.07538 18.4246C5.04451 20.3938 7.71523 21.5 10.5 21.5C13.2848 21.5 15.9555 20.3938 17.9246 18.4246C19.8938 16.4555 21 13.7848 21 11ZM9.57206 6.13456L5.63456 10.0721C5.39548 10.3196 5.26319 10.6511 5.26618 10.9953C5.26917 11.3394 5.4072 11.6686 5.65055 11.9119C5.8939 12.1553 6.22309 12.2933 6.56722 12.2963C6.91136 12.2993 7.2429 12.167 7.49044 11.9279L9.1875 10.2309V14.9375C9.1875 15.2856 9.32578 15.6194 9.57192 15.8656C9.81806 16.1117 10.1519 16.25 10.5 16.25C10.8481 16.25 11.1819 16.1117 11.4281 15.8656C11.6742 15.6194 11.8125 15.2856 11.8125 14.9375V10.2309L13.5096 11.9279C13.6306 12.0533 13.7755 12.1533 13.9356 12.2221C14.0957 12.2909 14.268 12.3271 14.4422 12.3286C14.6165 12.3301 14.7893 12.2969 14.9506 12.2309C15.1119 12.1649 15.2585 12.0674 15.3817 11.9442C15.5049 11.821 15.6024 11.6744 15.6684 11.5131C15.7344 11.3518 15.7676 11.179 15.7661 11.0047C15.7646 10.8305 15.7284 10.6582 15.6596 10.4981C15.5908 10.338 15.4908 10.1931 15.3654 10.0721L11.4279 6.13456C11.1818 5.88851 10.848 5.75028 10.5 5.75028C10.152 5.75028 9.81819 5.88851 9.57206 6.13456Z" fill="#FFE113"/>
</svg>
