<svg width="12" height="12" viewBox="0 0 12 12" fill="none" xmlns="http://www.w3.org/2000/svg">
<g id="ExternalLink" clip-path="url(#clip0_399_1026)">
<path id="Vector" d="M6.80016 0.399902C6.58799 0.399902 6.38451 0.484188 6.23448 0.634217C6.08445 0.784246 6.00016 0.987729 6.00016 1.1999C6.00016 1.41208 6.08445 1.61556 6.23448 1.76559C6.38451 1.91562 6.58799 1.9999 6.80016 1.9999H8.86896L3.83456 7.0343C3.75815 7.1081 3.69721 7.19638 3.65528 7.29398C3.61335 7.39158 3.59129 7.49656 3.59036 7.60278C3.58944 7.70901 3.60968 7.81435 3.64991 7.91267C3.69013 8.01098 3.74953 8.1003 3.82465 8.17542C3.89976 8.25053 3.98908 8.30994 4.0874 8.35016C4.18572 8.39038 4.29106 8.41063 4.39728 8.4097C4.50351 8.40878 4.60848 8.38671 4.70609 8.34478C4.80369 8.30286 4.89197 8.24191 4.96576 8.1655L10.0002 3.1311V5.1999C10.0002 5.41208 10.0844 5.61556 10.2345 5.76559C10.3845 5.91562 10.588 5.9999 10.8002 5.9999C11.0123 5.9999 11.2158 5.91562 11.3658 5.76559C11.5159 5.61556 11.6002 5.41208 11.6002 5.1999V1.1999C11.6002 0.987729 11.5159 0.784246 11.3658 0.634217C11.2158 0.484188 11.0123 0.399902 10.8002 0.399902H6.80016Z" fill="white"/>
<path id="Vector_2" d="M1.9999 2C1.57556 2 1.16859 2.16857 0.868531 2.46863C0.568473 2.76869 0.399902 3.17565 0.399902 3.6V10C0.399902 10.4243 0.568473 10.8313 0.868531 11.1314C1.16859 11.4314 1.57556 11.6 1.9999 11.6H8.3999C8.82425 11.6 9.23121 11.4314 9.53127 11.1314C9.83133 10.8313 9.9999 10.4243 9.9999 10V7.6C9.9999 7.38783 9.91562 7.18434 9.76559 7.03431C9.61556 6.88429 9.41208 6.8 9.1999 6.8C8.98773 6.8 8.78425 6.88429 8.63422 7.03431C8.48419 7.18434 8.3999 7.38783 8.3999 7.6V10H1.9999V3.6H4.3999C4.61208 3.6 4.81556 3.51571 4.96559 3.36569C5.11562 3.21566 5.1999 3.01217 5.1999 2.8C5.1999 2.58783 5.11562 2.38434 4.96559 2.23431C4.81556 2.08429 4.61208 2 4.3999 2H1.9999Z" fill="white"/>
</g>
<defs>
<clipPath id="clip0_399_1026">
<rect width="12" height="12" fill="white"/>
</clipPath>
</defs>
</svg>
